<svg width="32" height="36" viewBox="0 0 32 36" fill="none" xmlns="http://www.w3.org/2000/svg">
<g clip-path="url(#clip0_1_296)" filter="url(#filter0_d_1_296)">
<path d="M13.6926 19.1138C9.30842 19.1138 5.74179 22.6805 5.74179 27.0647C5.74179 27.5813 6.16053 28 6.67716 28H20.7084C21.225 28 21.6438 27.5813 21.6435 27.0647C21.6435 22.6805 18.0768 19.1138 13.6926 19.1138ZM7.6846 26.1292C8.13577 23.2192 10.6582 20.9846 13.6929 20.9846C16.7277 20.9846 19.2501 23.2192 19.7013 26.1292H7.6846Z" fill="#606060"/>
<path d="M27.5118 2.0828C26.2194 0.790107 24.4952 0.0782471 22.6568 0.0782471C20.8188 0.0782471 19.0949 0.790107 17.8022 2.0828C15.1251 4.75989 15.1251 9.11603 17.8022 11.7931C17.9774 11.9687 18.2153 12.0672 18.4635 12.0672C18.7117 12.0672 18.9493 11.9687 19.1248 11.7929L27.5119 3.40551C27.8773 3.04031 27.8773 2.44789 27.5118 2.0828ZM18.5256 9.74674C17.2036 7.8036 17.4031 5.12744 19.1248 3.40573C20.0643 2.46659 21.3183 1.94931 22.6569 1.94931C23.6761 1.94931 24.6462 2.24894 25.4659 2.80642L18.5256 9.74674Z" fill="#606060"/>
<path d="M16.7189 0.213245C16.3541 -0.0867134 15.8243 -0.0682839 15.482 0.256283L4.50676 10.6392C4.32465 10.8116 4.21927 11.0498 4.2143 11.3008C4.20932 11.5515 4.30535 11.7938 4.48089 11.973L13.0241 20.7034L14.3615 19.3948L6.48353 11.3444L16.1683 2.18258L17.8067 3.52924L18.995 2.08409L16.7189 0.213245Z" fill="#606060"/>
</g>
<defs>
<filter id="filter0_d_1_296" x="-2" y="0" width="36" height="36" filterUnits="userSpaceOnUse" color-interpolation-filters="sRGB">
<feFlood flood-opacity="0" result="BackgroundImageFix"/>
<feColorMatrix in="SourceAlpha" type="matrix" values="0 0 0 0 0 0 0 0 0 0 0 0 0 0 0 0 0 0 127 0" result="hardAlpha"/>
<feOffset dy="4"/>
<feGaussianBlur stdDeviation="2"/>
<feComposite in2="hardAlpha" operator="out"/>
<feColorMatrix type="matrix" values="0 0 0 0 0 0 0 0 0 0 0 0 0 0 0 0 0 0 0.25 0"/>
<feBlend mode="normal" in2="BackgroundImageFix" result="effect1_dropShadow_1_296"/>
<feBlend mode="normal" in="SourceGraphic" in2="effect1_dropShadow_1_296" result="shape"/>
</filter>
<clipPath id="clip0_1_296">
<rect width="28" height="28" fill="white" transform="translate(2)"/>
</clipPath>
</defs>
</svg>
