<svg width="24" height="24" viewBox="0 0 24 24" fill="none" xmlns="http://www.w3.org/2000/svg">
<path d="M4.50677 20.25C4.50379 20.2499 4.49773 20.2496 4.48898 20.249C4.46791 20.2475 4.4329 20.2441 4.38892 20.2368C4.29742 20.2215 4.18687 20.1924 4.08541 20.1417C3.98688 20.0924 3.91117 20.0303 3.85841 19.9512C3.80879 19.8767 3.75 19.7438 3.75 19.5C3.75 18.9426 4.05041 17.6353 5.21783 16.4678C6.36327 15.3224 8.40817 14.25 12 14.25C15.5918 14.25 17.6367 15.3224 18.7822 16.4678C19.9496 17.6353 20.25 18.9426 20.25 19.5C20.25 19.7438 20.1912 19.8767 20.1416 19.9512C20.0888 20.0303 20.0131 20.0924 19.9146 20.1417C19.8131 20.1924 19.7026 20.2215 19.6111 20.2368C19.5671 20.2441 19.5321 20.2475 19.511 20.249C19.5023 20.2496 19.4962 20.2499 19.4932 20.25H4.50677ZM14.6517 10.1516C13.9484 10.8549 12.9946 11.25 12 11.25C11.0054 11.25 10.0516 10.8549 9.34835 10.1517C8.64509 9.44839 8.25 8.49456 8.25 7.5C8.25 6.50544 8.64509 5.55161 9.34835 4.84835C10.0516 4.14509 11.0054 3.75 12 3.75C12.9946 3.75 13.9484 4.14509 14.6517 4.84835C15.3549 5.55161 15.75 6.50544 15.75 7.5C15.75 8.49456 15.3549 9.44839 14.6517 10.1516Z" stroke="#BDBDBD" stroke-width="1.5"/>
</svg>
